<svg xmlns="http://www.w3.org/2000/svg" viewBox="0 0 256 257" width="64" height="64" fill="none">
  <defs>
    <linearGradient id="g1" x1="0" y1="0" x2="1" y2="1">
      <stop offset="0%" stop-color="#41D1FF"/>
      <stop offset="100%" stop-color="#BD34FE"/>
    </linearGradient>
    <linearGradient id="g2" x1="0" y1="0" x2="1" y2="1">
      <stop offset="0%" stop-color="#FFEA83"/>
      <stop offset="8.333%" stop-color="#FFDD35"/>
      <stop offset="100%" stop-color="#FFA800"/>
    </linearGradient>
  </defs>
  <path d="M255.153 37.938L134.987 252.976c-2.483 4.51-8.962 4.507-11.441-.006L.875 37.94c-2.746-4.994 1.385-10.97 7.091-10.01l120.934 20.423a6.5 6.5 0 002.193 0l116.994-19.795c5.68-.96 9.846 4.945 7.145 9.95z" fill="url(#g1)"/>
  <path d="M185.432 2.253L97.397 18.734a3.25 3.25 0 00-2.662 3.205l-2.6 98.803a3.25 3.25 0 004.106 3.2l23.9-6.219c2.33-.606 4.486 1.51 3.913 3.857l-7.095 29.15c-.603 2.477 1.826 4.59 4.146 3.86l14.77-4.557c2.327-.718 4.66 1.37 4.108 3.724l-11.266 48.528c-.716 3.086 3.549 4.86 5.288 2.06l1.213-1.978 69.146-138.878c1.24-2.494-.87-5.33-3.626-4.84l-24.611 4.234c-2.37.407-4.375-1.86-3.63-4.149l15.994-49.27c.77-2.371-1.378-4.682-3.789-4.243z" fill="url(#g2)"/>
</svg>
